<svg xmlns="http://www.w3.org/2000/svg" width="500" height="500" version="1"><defs><clipPath id="a"><path stroke-width="1.065" d="M150 0h500v500H150z"/></clipPath></defs><path d="M0 0h800v500H0z" clip-path="url(#a)" transform="translate(-150)"/><path fill="#fff" d="M301.812 265.365c-4.17 6.27-13.611 8.562-19.267 14.055-6.772 6.579-17.427 16.793-31.832 16.838-13.764.045-26.796-7.866-34.25-17.125-4.134-5.135-16.154-8.366-19.526-13.768-4.65-7.449-8.595-19.844-7.742-26.707.358-2.875 9.905-5.693 11.375-2.506 11.508 24.96 28.377 29.313 49.912 29.313 20.895 0 35.32.427 47.579-28.93 2.126-5.09 10.473-1.126 11.456 2.092 3.508 11.491.034.008.068.015.034.008-2.907 19.405-7.773 26.723zm-50.659 84.456c27.497-11.49 70.384-28.88 99.066-33.765 8.278-17.356 51.108-53.184 42.98.719 24.299 16.763 14.147 45.995-31.183 20.294-22.804 1.665-64.03 18.29-83.254 27.91 18.106 8.319 54.634 29.964 70.44 39.05 94.382 8.44 52.338 37.134 28.94 39.914.473 12.287-39.003 36.42-49.673-17.884-10.55-10.62-66.11-44.222-79.796-46.925-18.794 7.071-62.407 34.427-80.047 49.631-5.91 38.621-25.976 35.175-45.135 13.443-37.72-.476-50.782-39.802 29.878-41.227 15.548-7.976 51.79-28.774 68.296-36.003-28.863-11.764-62.841-22.77-85.68-27.762-33.615 24.238-56.89 2.613-30.944-20.08-2.696-11.228 2.644-46.615 51.067-4.137 18.79 6.285 72.341 26.723 95.045 36.822zm-.777-162.749c-4.163 7.367-18.815 19.211-18.85 23.515-.094 11.418 11.272 11.593 19.054 6.563 7.97 4.272 18.982 6.094 18.48-6.845-.19-4.925-13.169-14.243-18.684-23.233zm38.508 45.397c-4.035 2.539-1.942 11.967-6.339 13.655-19.633 7.538-44.334 5.877-63.638.786-6.093-1.607-5.366-13.233-7.64-14.44-13.615-7.23-33.645-9.051-44.344-18.04-4.885-4.103-1.977-31.676-10.686-36.89-7.967-4.769-11.157-22.03-13.962-36.766-2.79-14.658-4.923-44.104 11.936-63.842 16.86-19.738 48.442-36.11 96.772-36.11 48.298 0 80.69 15.443 96.654 36.11 16.018 20.737 11.634 50.116 9.146 63.842-2.727 15.046-10.037 30.68-16.441 36.355-6.662 5.904-4.586 34.19-7.414 37.302-5.549 6.108-31.285 10.013-44.044 18.038zm-112.69-69.076c-.413 20.6 20.229 30.065 37.205 24.295 19.474-6.618 21.974-41.536.99-47.648-17.21-5.012-37.762 1.746-38.195 23.353zm125.594 25.467c22.38-2.801 29.111-38.188 9.721-47.611-15.61-7.586-39.697-1.544-41.895 19.655-2.645 25.52 15.8 30.005 32.174 27.956z"/></svg>