<svg xmlns="http://www.w3.org/2000/svg" xmlns:xlink="http://www.w3.org/1999/xlink" width="326.955" height="667.349" viewBox="0 0 86.507 176.569"><defs><linearGradient id="a"><stop stop-color="#9b9b9b" offset="0"/><stop stop-color="#202020" offset="1"/></linearGradient><linearGradient id="b" x1="89.58" x2="89.58" y1="-.016" y2="131.898" gradientTransform="translate(-74.033)" gradientUnits="userSpaceOnUse" xlink:href="#a"/><linearGradient id="e"><stop stop-color="#5e5e5e" offset="0"/><stop stop-color="#6b6b6b" offset=".596"/><stop stop-color="#909090" offset="1"/></linearGradient><linearGradient id="f"><stop stop-color="#313131" stop-opacity=".5" offset="0"/><stop stop-color="#313131" stop-opacity="0" offset="1"/></linearGradient><linearGradient id="d"><stop stop-color="#7e7e7e" offset="0"/><stop stop-color="#909090" offset="1"/></linearGradient><linearGradient id="c"><stop stop-color="#1d1d1d" offset="0"/><stop stop-color="#242424" offset="1"/></linearGradient><linearGradient id="m" x1="89.58" x2="89.58" y1="-.016" y2="131.898" gradientTransform="translate(23.836)" gradientUnits="userSpaceOnUse" xlink:href="#a"/><clipPath id="n"><rect width="63.098" height="131.898" ry="6.048" color="#000" fill="url(#b)"/></clipPath><filter id="o" x="-.009" y="-.004" width="1.019" height="1.009" color-interpolation-filters="sRGB"><feGaussianBlur stdDeviation=".244"/></filter><filter id="p" x="-.009" y="-.004" width="1.019" height="1.009" color-interpolation-filters="sRGB"><feGaussianBlur stdDeviation=".238"/></filter><linearGradient id="q" x1="6.314" x2="8.837" y1="7.927" y2="7.927" gradientTransform="translate(81.124 -51.198)" gradientUnits="userSpaceOnUse" xlink:href="#c"/><clipPath id="r"><circle transform="scale(-1 1) rotate(30)" cx="-8.395" cy="14.288" r=".81" color="#000" fill="none" stroke="#1d1d1d" stroke-width=".128" stroke-linecap="square" stroke-linejoin="bevel"/></clipPath><filter id="s" x="-.138" y="-.138" width="1.276" height="1.276" color-interpolation-filters="sRGB"><feGaussianBlur stdDeviation=".044"/></filter><filter id="t" x="-1.054" y="-1.054" width="3.107" height="3.107" color-interpolation-filters="sRGB"><feGaussianBlur stdDeviation=".099"/></filter><linearGradient id="u" x1="10.317" x2="60.275" y1="2.166" y2="2.166" gradientTransform="translate(35.882 4.162) scale(3.77953)" gradientUnits="userSpaceOnUse" xlink:href="#d"/><filter id="v" x="-.002" y="-.069" width="1.004" height="1.138" color-interpolation-filters="sRGB"><feGaussianBlur stdDeviation=".189"/></filter><clipPath id="x"><rect x="91.642" y="10.818" width="65.347" height="130.547" ry="3.575" color="#000" fill="#171717"/></clipPath><filter id="y" x="-.18" y="-.09" width="1.36" height="1.18" color-interpolation-filters="sRGB"><feGaussianBlur stdDeviation="4.897"/></filter><linearGradient xlink:href="#e" id="g" gradientUnits="userSpaceOnUse" gradientTransform="translate(-10.925 1.904)" x1="74.099" y1="38.909" x2="75.213" y2="38.909"/><linearGradient xlink:href="#f" id="h" gradientUnits="userSpaceOnUse" gradientTransform="translate(-5.145 6.147)" x1="68.588" y1="30.302" x2="68.588" y2="31.149"/><linearGradient xlink:href="#f" id="i" gradientUnits="userSpaceOnUse" gradientTransform="translate(-5.145 -75.478)" x1="68.588" y1="30.302" x2="68.588" y2="31.149"/><linearGradient xlink:href="#e" id="j" gradientUnits="userSpaceOnUse" gradientTransform="translate(-3.128 20.626)" x1="74.099" y1="38.909" x2="75.213" y2="38.909"/><linearGradient xlink:href="#f" id="k" gradientUnits="userSpaceOnUse" gradientTransform="translate(2.652 24.87)" x1="68.588" y1="30.302" x2="68.588" y2="31.149"/><linearGradient xlink:href="#f" id="l" gradientUnits="userSpaceOnUse" gradientTransform="translate(2.652 -102.686)" x1="68.588" y1="30.302" x2="68.588" y2="31.149"/></defs><g transform="translate(-102.39) scale(1.16799)"><g transform="translate(92.068 -3.246) scale(1.08358)" color="#000"><rect x="59.633" y="36.228" width="4.655" height="9.169" rx=".535" ry=".468" fill="url(#g)"/><rect x="59.633" y="36.228" width="4.655" height="9.169" rx=".535" ry=".468" fill="url(#h)"/><rect transform="scale(1 -1)" x="59.633" y="-45.398" width="4.655" height="9.169" rx=".535" ry=".468" fill="url(#i)"/></g><g transform="translate(83.62 -2.24) scale(1.08358)" color="#000"><rect x="67.43" y="54.95" width="4.655" height="17.655" rx=".535" ry=".468" fill="url(#j)"/><rect x="67.43" y="54.95" width="4.655" height="9.169" rx=".535" ry=".468" fill="url(#k)"/><rect transform="scale(1 -1)" x="67.43" y="-72.605" width="4.655" height="9.169" rx=".535" ry=".468" fill="url(#l)"/></g><g color="#000"><path d="M93.712 0h61.208a6.034 6.034 0 0 1 6.047 6.048v139.079a6.034 6.034 0 0 1-6.047 6.047H93.712a6.034 6.034 0 0 1-6.048-6.047V6.047A6.034 6.034 0 0 1 93.712 0z" fill="url(#m)"/><path transform="translate(97.87)" d="M-4.158 0H57.05a6.034 6.034 0 0 1 6.048 6.048v139.079a6.034 6.034 0 0 1-6.048 6.047H-4.158a6.034 6.034 0 0 1-6.047-6.047V6.047A6.034 6.034 0 0 1-4.158 0z" clip-path="url(#n)" fill="none" stroke="#000" stroke-width=".2" stroke-linecap="square" stroke-linejoin="bevel" stroke-opacity=".596" filter="url(#o)"/><path transform="translate(87.263 -.403) scale(1.00533)" d="M6.698 1.103h60.318a5.467 5.467 0 0 1 5.48 5.479v138.01a5.467 5.467 0 0 1-5.48 5.48H6.698a5.467 5.467 0 0 1-5.48-5.48V6.583a5.467 5.467 0 0 1 5.48-5.48z" fill="none" stroke="#000" stroke-width=".2" stroke-linecap="square" stroke-linejoin="bevel" stroke-opacity=".596" filter="url(#p)"/><path d="M93.996.706h60.64a5.496 5.496 0 0 1 5.508 5.508V144.96a5.496 5.496 0 0 1-5.508 5.508h-60.64a5.496 5.496 0 0 1-5.508-5.508V6.214A5.496 5.496 0 0 1 93.996.706z"/><circle transform="rotate(30)" cx="88.7" cy="-43.272" r="1.261" fill="url(#q)"/></g><g transform="translate(84.037 -1.3)" color="#000"><circle transform="scale(-1 1) rotate(30)" cx="-8.395" cy="14.288" r=".81" fill="#1a162d"/><g clip-path="url(#r)" fill="#7d77a1"><circle transform="rotate(30)" cx="16.902" cy="-.038" r=".379" filter="url(#s)"/><circle transform="rotate(30)" cx="16.168" cy="-.234" r=".113" filter="url(#t)"/></g></g><g color="#000"><path d="M111.776 3.703h25.08c.432 0 .78.348.78.78 0 .432-.348.78-.78.78h-25.08a.778.778 0 0 1-.78-.78c0-.432.348-.78.78-.78z" fill="#222"/><path d="M111.155 4.392c-.004.03-.009.06-.009.092 0 .351.278.629.63.629h25.079a.626.626 0 0 0 .631-.629.563.563 0 0 0-.01-.092.623.623 0 0 1-.621.537h-25.08a.621.621 0 0 1-.62-.537z" fill="#191919"/></g><path transform="translate(87.459) scale(.26458)" d="M30.365 9.066c-8.839 0-13.258 6.567-13.258 6.567s3.916-5.43 16.038-5.43h213.353c12.122 0 16.037 5.43 16.037 5.43s-4.419-6.567-13.258-6.567h-82.85z" fill="url(#u)" fill-rule="evenodd" filter="url(#v)"/><g color="#000"><path d="M111.776 145.912h25.08c.432 0 .78.347.78.78a.778.778 0 0 1-.78.779h-25.08a.778.778 0 0 1-.78-.78c0-.432.348-.78.78-.78z" fill="#222"/><path d="M111.155 146.6c-.004.03-.009.06-.009.092 0 .352.278.63.63.63h25.079a.626.626 0 0 0 .631-.63c0-.031-.005-.061-.01-.092a.623.623 0 0 1-.621.537h-25.08a.621.621 0 0 1-.62-.537z" fill="#191919"/></g><rect xmlns="http://www.w3.org/2000/svg" x="91.642" y="10.818" width="65.347" height="130.547" ry="3.575" color="#000" fill="url(#w)"/><pattern id="w" height="100%" width="100%" viewBox="0 0 65.347 130.547"><image width="65.347" height="130.547" xlink:href="f-t.win_(Pixel 2 XL)_P.png"/></pattern><rect x="91.642" y="10.818" width="65.347" height="130.547" ry="3.575" clip-path="url(#x)" color="#000" fill="none" stroke="#242424" stroke-linecap="square" stroke-linejoin="round" filter="url(#y)"/></g></svg>